<?xml version="1.0" standalone="no"?>
<!DOCTYPE svg PUBLIC "-//W3C//DTD SVG 20010904//EN"
 "http://www.w3.org/TR/2001/REC-SVG-20010904/DTD/svg10.dtd">
<svg version="1.0" xmlns="http://www.w3.org/2000/svg"
 width="512.000000pt" height="512.000000pt" viewBox="0 0 512.000000 512.000000"
 preserveAspectRatio="xMidYMid meet">
<metadata>
Created by potrace 1.11, written by Peter Selinger 2001-2013
</metadata>
<g transform="translate(0.000000,512.000000) scale(0.100000,-0.100000)"
fill="#000000" stroke="none">
<path d="M1330 4595 c-8 -10 -10 -29 -6 -57 4 -27 1 -68 -10 -115 -15 -61 -15
-77 -4 -97 10 -21 10 -42 -4 -133 -24 -159 -54 -471 -66 -686 -15 -268 -21
-293 -96 -414 -25 -40 -57 -103 -70 -140 l-24 -68 1 -1020 c0 -763 3 -1029 12
-1055 17 -48 64 -77 145 -87 87 -10 620 -10 694 0 31 5 72 18 90 31 67 44 63
-23 66 1096 l3 1015 -22 69 c-12 38 -47 109 -77 159 -30 50 -61 114 -68 142
-8 27 -18 131 -24 230 -12 211 -55 645 -75 760 -9 51 -11 83 -5 89 14 14 12
71 -5 139 -10 44 -11 65 -3 83 8 18 8 31 0 49 l-12 25 -214 0 c-178 0 -216 -3
-226 -15z"/>
<path d="M2437 4593 c-25 -28 -108 -381 -164 -693 -24 -136 -27 -181 -28 -370
0 -195 2 -222 23 -294 98 -338 387 -565 765 -601 l68 -7 -4 -710 c-5 -709 -5
-711 -26 -727 -11 -9 -137 -91 -279 -183 -142 -92 -268 -178 -281 -191 -30
-33 -26 -86 8 -103 17 -9 186 -12 641 -11 597 2 619 3 639 21 16 15 21 29 19
55 -3 34 -11 40 -300 229 l-298 194 0 713 0 714 58 6 c369 39 646 246 751 561
73 217 60 493 -45 984 -57 267 -94 404 -111 418 -13 9 -173 12 -718 12 -656 0
-703 -1 -718 -17z"/>
</g>
</svg>
